<svg fill="none" height="168" viewBox="0 0 169 168" width="169" xmlns="http://www.w3.org/2000/svg"><path d="m.0576005 77.0103v-4.5841c.0576005-.2321.1152015-.4062.1152015-.6383.0576-1.0445.0576-2.0309.172801-3.0174.288003-2.4371.576006-4.8742.921607-7.3113.34561-2.7853.92161-5.5705 1.67042-8.2978.97921-3.4815 2.36162-6.7891 4.08964-9.9225.97921-1.7408 1.95841-3.4816 2.99523-5.2224 1.5552-2.7852 3.2832-5.3964 5.184-7.8916 2.2465-2.7852 4.8385-5.2804 7.6609-7.4273 2.8224-2.147 5.7601-4.1199 8.7553-6.0928 4.032-2.5532 8.2369-4.7001 12.6721-6.499 1.3824-.58023 2.8224-1.10247 4.2049-1.62471 1.728-.63829 3.5136-1.21855 5.2992-1.79882 1.7856-.58026 3.5712-1.1025 5.3569-1.56671 1.9584-.52224 3.9744-1.04448 5.9328-1.50869 1.2672-.29013 2.4768-.58026 3.7441-.81237 1.5552-.29013 3.1104-.58026 4.7232-.81237 2.0736-.29013 4.0896-.58026 6.1633-.87039 1.9008-.232109 3.8016-.464214 5.7024-.638294 2.4192-.174079 4.8385-.4061847 7.2577-.4642111 1.7856-.0580264 3.6288.1740791 5.4144.2321061 2.4193.058026 4.8383.290132 7.3153.580264 2.534.348155 5.069.928425 7.488 1.682765 1.958.58027 3.802 1.27658 5.703 2.03093 1.44.58026 2.88 1.27658 4.262 1.97289 1.498.81237 2.938 1.68277 4.378 2.61119 1.728 1.10252 3.398 2.20502 5.068 3.48162 2.189 1.6827 4.378 3.3655 6.452 5.1643 1.843 1.5667 3.571 3.2495 5.241 4.9323 2.074 2.0889 4.032 4.2939 5.991 6.4989 2.765 3.0174 5.299 6.2669 7.545 9.6904 1.383 2.031 2.593 4.1779 3.629 6.441.692 1.5087 1.383 3.0754 1.959 4.5841.691 1.7407 1.382 3.4815 1.901 5.2804.864 2.6692 1.555 5.3964 2.131 8.1817.288 1.5087.633 3.0754.921 4.5841.404 2.147.692 4.2939.749 6.4409.231 5.1644-.057 10.3867-.979 15.4931-.518 3.2494-1.267 6.4989-2.304 9.6323-.979 2.8435-2.016 5.6865-2.995 8.5295-1.786 4.991-3.283 10.039-5.472 14.855-.98 2.089-1.959 4.236-3.111 6.267-1.267 2.263-2.649 4.41-4.205 6.499-2.649 3.772-5.817 7.195-9.388 10.097-3.399 2.669-6.797 5.338-10.253 7.949-1.844 1.393-3.86 2.553-5.818 3.772-2.477 1.451-5.069 2.727-7.718 3.772-1.325.522-2.65 1.102-4.033 1.566-1.958.639-3.974 1.161-5.99 1.567-1.152.232-2.304.522-3.514.754-1.44.291-2.88.407-4.3197.697-3.8592.696-7.7184 1.102-11.6353 1.218-3.9168.174-7.8912.058-11.8081-.232-3.0528-.232-6.1632-.58-9.1585-1.16-4.4352-.813-8.7553-2.205-12.8449-4.178-5.4144-2.727-10.5985-5.745-15.6673-9.11-2.8801-1.973-5.5873-4.294-8.0065-6.848-2.0736-2.146-4.2049-4.235-6.2209-6.382-1.3248-1.393-2.6496-2.786-3.9168-4.294-1.0944-1.277-2.0736-2.67-3.168-4.004-2.1889-2.553-4.0897-5.339-5.8177-8.24-1.44001-2.437-2.76483-4.932-3.91684-7.543-.6336-1.509-1.20961-2.96-1.78561-4.468-.34561-.929-.69121-1.915-.97921-2.902-.40321-1.45-.69121-2.843-1.03681-4.294-.34561-1.624-.74881-3.191-.97921-4.8159-.34561-2.3791-.69121-4.8162-.921612-7.2533s-.403204-4.9322-.518405-7.4274c-.115201-2.1469-.230402-4.2939-.345603-6.3829.172802-.2321.115201-.3481.0576005-.5222z" fill="#fff"/><path d="m105.986 90.6461c-1.268-1.2185-6.5092-9.3422-7.7188-11.141-1.0944-1.6248-2.9952-4.0039-3.8592-7.2533-6.1633 7.7755-17.2802 19.845-23.7314 25.7637-2.2465 1.5667-4.3201 2.7855-6.3361.4062-5.4721-6.2089 16.1857-35.6863 21.8882-43.1137 8.0641-8.7619 20.3903-10.9669 30.9893-15.435-14.919-12.8238-35.8277-14.6807-54.0871-8.762-1.2096 9.0521-13.0753 33.1331-16.589 30.1738-3.2832-3.4236-7.2576-5.9768-10.5985-9.2843-1.3248 1.7408-2.1312 3.7718-3.168 5.7447 14.1697 7.9496 10.8289 55.8798 5.4144 55.2408 3.3409 4.816 7.4305 9.11 12.1538 12.65 0 0 63.6484 2.669 64.1094 3.192 13.421-8.414 22.234-23.501 23.904-39.2263-7.43-3.3076-31.219.8704-32.371 1.0444z" fill="#5dd4f6"/><path d="m138.529 80.7237c-.057-1.2185-.172-2.4371-.288-3.5976-.172-1.3346-.345-2.6692-.633-3.9458-.461-1.9729-.922-3.9458-1.498-5.8607-.921-3.0754-2.131-6.0927-3.686-8.936-.864-1.6248-1.786-3.2495-2.765-4.7582-1.152-1.7988-2.362-3.5396-3.744-5.1643-.749-.8704-1.44-1.7989-2.247-2.6693-.115-.116-.288-.2901-.46-.4642-.231.2902-.461.4643-.807.6383-3.398 1.5087-6.278 3.8298-9.331 5.9187-3.226 2.147-6.797 3.7717-10.138 5.8027l-.057.058c.288.6963.748 1.3926 1.209 1.9729 1.095 1.2766 2.823 1.7408 4.32 2.321 3.917 1.4507 7.604 3.0754 10.714 5.9768.461.4062.691.9864.691 1.5667 1.383 2.3791.979 4.8742-.979 7.6595-2.362 3.4235-5.126 8.0076-8.928 9.9225-4.263 2.205-7.258-1.8569-9.619-4.8742-.6916-.8704-1.3828-1.7989-1.9588-2.7273.1152.5803.1152 1.1025.1152 1.6828.0576 2.147 0 4.2939 0 6.3829-.0576.5222.1152 1.1025.3456 1.5667.5184.8124 1.152 1.5667 1.843 2.147.519.4642 1.152.8123 1.786.9864 1.152.2902 2.304.3482 3.513.1741 1.556-.1741 3.169-.4642 4.724-.6963 1.152-.1741 2.246-.4062 3.398-.5803 1.152-.174 2.362-.4062 3.571-.6383.807-.116 1.671-.2321 2.477-.3481 1.498-.2321 2.938-.4642 4.435-.6963 1.21-.1741 2.362-.2902 3.572-.2902 1.209-.058 2.361-.116 3.571-.116.806.058 1.555.116 2.362.2901.633.1161 1.324.2901 1.958.3482.806.116 1.613.116 2.419.116.058-.116.115-.2901.115-.4642.116-.8704.231-1.7988.231-2.7272-.173-1.9729-.231-3.9458-.231-5.9768z" fill="#a6e8a1"/><path d="m32.8902 57.687c1.3248.5803 2.4768 1.3926 3.5136 2.4371.8064.8124 1.728 1.6828 2.5344 2.6112.9792 1.0445 1.7856 2.263 2.4768 3.5396.8064 1.3927 1.5552 2.8433 2.1889 4.352.288.7543.576 1.5667.6912 2.3211.288 1.1605.4608 2.321.6912 3.4815.288 1.3347.4608 2.6693.8064 3.9458.3456 1.2766.8064 2.5532 1.2096 3.8298.2304.6383.5184 1.3346.7488 2.0309.4608 1.2186 1.0944 2.3211 1.9008 3.3655.8064.9865 1.728 1.9149 2.7648 2.6693 1.0369.8123 2.1313 1.6827 3.1681 2.4951 1.4976 1.0445 2.9952 2.0889 4.4928 3.0754 1.8432 1.2185 3.5712 2.5527 5.2417 4.0617.6912.696 1.44 1.335 2.1312 1.973.3456.348.6912.696.9792 1.103.2304.29.3456.638.4032.986.1152.928 0 1.915-.2304 2.843-.0576.116-.1152.174-.1728.29-1.2096 1.451-2.8224 2.438-4.6657 2.844-1.2096.29-2.4192.464-3.6288.638-1.3248.174-2.6496.29-3.9168.464s-2.5921.174-3.9169.29c-2.9952.29-5.9328.232-8.928.174-1.2097 0-2.3041-.174-3.4561-.29-.5184-.058-1.0944-.116-1.6128-.116-.1728-.232-.3456-.406-.5184-.638-1.9008-2.727-3.5136-5.629-4.8384-8.646-.6337-1.393-1.2097-2.901-1.7281-4.352-.7488-1.9148-1.3248-3.8877-1.728-5.8606-.3456-1.5668-.6336-3.2495-.9216-4.8162-.1728-1.2186-.288-2.4952-.4608-3.7137-.2304-2.089-.288-4.1779-.1728-6.3249 0-1.0445.1152-2.147.2304-3.1334.1728-1.3927.4032-2.7853.6336-4.1779.4608-2.7273 1.0944-5.4545 2.016-8.0077.576-1.7988 1.2672-3.5976 2.1313-5.2804-.2304-.1741-.1728-.2901-.0576-.4642z" fill="#a6e8a1"/><path d="m50.2852 125.694 2.2464-.464c2.4768-.464 4.9536-.986 7.3728-1.799.8641-.29 1.7281-.638 2.5921-1.102 1.9008-.987 3.9744-1.799 5.9904-2.611.6336-.291 1.3248-.639 1.9584-.871 1.9585-.87 3.9169-1.915 5.9905-2.669 1.3824-.464 2.8224-.754 4.32-1.161 1.1521-.29 2.2465-.58 3.3985-.812.6912-.116 1.3824-.174 2.1312-.29.5184-.058 1.0368-.116 1.5552-.116 1.3824 0 2.8224.116 4.1473.29 1.3248.116 2.6496.464 3.8592.928 1.2096.523 2.4768 1.103 3.6288 1.741 1.382.755 2.707 1.509 4.032 2.321 1.094.697 2.131 1.509 3.168 2.263 2.304 1.799 4.435 3.772 6.451 5.977.461.464.807.928 1.268 1.393-.461.29-.864.638-1.325.928-2.65 1.567-5.472 2.959-8.352 4.062-2.42.928-4.8964 1.683-7.4308 2.263-1.3824.348-2.8224.522-4.32.812-.864.116-1.7281.232-2.6497.29-1.0368.116-2.1312.175-3.1104.233-1.3248.058-2.6496.116-3.9168.116-1.3248-.058-2.5345-.174-3.7441-.291-.9216-.116-1.9008-.174-2.8224-.29-1.2096-.174-2.4192-.406-3.6288-.638-2.5921-.522-5.0689-1.277-7.5457-2.205-1.3248-.464-2.6496-.986-3.9168-1.567-1.2096-.522-2.3617-1.102-3.5713-1.74-2.6496-1.393-5.184-3.018-7.6032-4.875 0 0-.0576-.058-.1728-.116z" fill="#a6e8a1"/><path d="m63.1309 31.0532c-.1728 1.3927-.3456 2.6692-.5184 4.0619-.288 2.1469-.1728 4.2939-.2304 6.4409v6.2088c0 .8704-.1152 1.7408-.1728 2.6112-.0576.5223-.0576 1.1025-.1152 1.6248-.2304 2.1469-.288 4.2359-.1728 6.3829 0 1.3926.1152 2.7272.2304 4.1198.1728 1.6828.2304 3.3656.1728 5.0483 0 .9284-.2304 1.8569-.5184 2.7273-.288.8123-.9792 1.4506-1.9009 1.6827-.864.2902-1.728.4642-2.6496.1741-.5184-.1741-.9792-.4062-1.44-.7543-1.152-.8704-2.1888-1.9149-2.9952-3.1335-.576-.7543-1.152-1.4506-1.728-2.1469-.7489-.9285-1.4977-1.8569-2.3041-2.7273-.6336-.7543-1.3824-1.3926-2.1312-2.0889-.1152-.1161-.2304-.1741-.288-.2902-1.9008-1.8568-3.9168-3.5976-6.048-5.2804-.9793-.7543-1.9009-1.5667-2.8225-2.379-.4608-.4643-.9216-.8704-1.3824-1.3927.0576-.116.1152-.2901.1728-.4642.9792-1.5667 2.1312-3.1334 3.2832-4.5841 1.5553-1.9148 3.2257-3.7137 5.0113-5.4545 1.5552-1.5086 3.2256-2.8432 5.0112-4.1198 2.3041-1.5667 4.7233-2.9594 7.3153-4.0619 1.7856-.8123 3.6289-1.3926 5.5297-2.1469.1152.058.4608-.0001.6912-.0581z" fill="#a6e8a1"/><path d="m65.089 97.261c0-.058-.0576-.116-.0576-.116-1.5552-.3482-2.8225-2.3791-2.7649-4.0619.0576-1.7408.2304-3.5396.576-5.2804.8065-4.2939 2.1313-8.4138 3.2833-12.5917 1.8432-6.2088 3.5712-12.4177 5.472-18.6265.7488-2.4371 1.6128-4.8742 2.4768-7.3113-.288-.2321-.6336-.5223-.9792-.8124-.9216-.8124-1.7856-1.6828-2.5344-2.6692-.7488-.8124-1.2096-1.9149-1.44-3.0174-.1728-.7543-.1152-1.5667.288-2.263.288-.5803.5184-1.2186.8064-1.7408.5184-.9284 1.2096-1.7408 2.304-2.0309 2.5921-.8124 5.4145-.5223 7.7761.7543.9792.5223 1.9008 1.1605 2.8224 1.7408.1728.1161.288.2321.5184.1161 1.7281-.6383 3.5713-1.2186 5.3569-1.6248 3.6864-.9864 7.3729-1.9729 11.0588-2.8433 2.477-.6383 5.012-1.1605 7.489-1.6827 2.304-.4642 4.492-.8704 6.796-1.2766 1.959-.3482 3.917-.6383 5.933-.8704 1.555-.1741 3.111-.2901 4.666-.2901.922-.0581 1.843-.0581 2.765 0 .576.058 1.094.116 1.67.2321.864.2901 1.555 1.0444 1.613 1.9729.058 1.0444-.403 2.0889-1.21 2.7272-1.44 1.2766-2.88 2.5532-4.492 3.6557-4.321 3.2494-8.813 6.2668-13.364 9.1101-1.094.6963-2.189 1.4507-3.225 2.205-1.786 1.2186-3.687 2.3791-5.645 3.4236-.634.3481-1.267.7543-1.901 1.1025.634 1.0444 1.21 2.147 2.074 3.0173.288.2902.633.4643.979.5803 1.209.4642 2.477.9865 3.744 1.3926 2.419.8124 4.723 1.9149 7.027 2.9594 1.21.5222 2.362 1.1025 3.571 1.6828.346.174.691.4061.979.6963.576.6383.749 1.5087.461 2.321-.518 2.2631-1.497 4.352-2.88 6.2089-1.901 2.6111-4.032 4.9902-6.336 7.1372-1.152 1.1025-2.419 1.9729-3.801 2.6692-.231.1161-.461.2321-.749.2902-.634.116-1.21-.0581-1.613-.4643-.806-.8123-1.498-1.7408-2.016-2.7272-1.037-1.7988-1.901-3.7137-2.8225-5.6286-1.3248-2.8433-2.5344-5.6866-4.2625-8.3558-.1728-.2901-.4032-.4642-.6912-.5802-.6336-.2321-1.3248-.5223-1.9584-.8124-.6336.8124-1.2672 1.6247-1.9008 2.4371-2.1888 3.0174-4.32 6.1508-6.6241 9.1682-3.3408 4.352-6.624 8.6459-10.1952 12.7658-1.7281 1.9729-3.5137 3.8297-5.4145 5.5705-.8064.6963-1.6704 1.2766-2.6496 1.6828z" fill="#ff596f"/><g fill="#19124f" stroke="#1d184e" stroke-miterlimit="10" stroke-width=".9888"><path d="m64.167 37.8998c.1728-.116.3456-.2901.576-.2901 1.6704-.2321 3.2832-.4062 4.896-.5222.576-.0581 1.0944-.1161 1.6705-.1161.288 0 .576-.058.8064.2901-.8064.8124-1.4977 1.7408-1.9585 2.6692-.288.4643-.4608.9865-.6912 1.5668-.1152.3481-.2304.6383-.288.9864-.4608-.1741-.9216-.4642-1.3248-.8124-.9792-.7543-1.9008-1.5086-2.88-2.321-.288-.2901-.5184-.5223-.8064-.8124z"/><path d="m97.4029 144.901c-3.8592 0-8.9281-.986-13.8817-2.727-.288-.116-.5184-.232-.7488-.406-.576-.407-.6336-1.219-.288-1.741.288-.348.6336-.522 1.0944-.464.288 0 .4608.116.6912.116 3.0528 1.102 6.2208 1.856 9.4465 2.263 6.7965.812 13.4205.174 19.6415-2.786 8.122-3.887 13.248-10.212 15.725-18.916 1.037-3.83 1.44-7.834 1.095-11.78-.519-7.253-2.823-13.926-6.509-20.1348-1.901-3.1334-3.975-6.0928-6.336-8.82-.288-.2901-.461-.6383-.692-.9284-.288-.3482-.288-.8704.058-1.2186.346-.2901.864-.2901 1.21 0 .288.2321.633.4642.864.7544 3.225 3.2494 5.933 6.9051 8.121 10.967 2.477 4.468 4.263 9.2842 5.242 14.2744 1.325 7.021.979 13.926-1.555 20.657-3.399 8.879-9.619 15.029-18.375 18.395-4.32 1.741-8.813 2.495-14.8031 2.495z"/><path d="m104.488 59.3119c0 .2902-.116.6383-.404.8124s-.633.1161-.806-.058-.346-.3482-.518-.5803c-1.556-2.321-3.2837-4.526-5.1845-6.615-2.0736-2.205-4.3776-4.1779-6.912-5.8026-1.728-1.1606-3.5713-2.205-5.5297-3.1335-.4608-.2321-.9216-.5222-1.3824-.8123-.4608-.2902-.4608-.4642-.3456-.7544.1152-.2901.4608-.3481.864-.2321.9792.4642 2.016.8124 2.9952 1.3346 3.3409 1.5667 6.5089 3.5977 9.2737 6.0928 1.9008 1.7408 3.5713 3.5976 5.0693 5.6286.864 1.1605 1.67 2.321 2.476 3.4235.173.2321.288.4642.404.6963z"/><path d="m85.5946 70.743c.0576.2902-.1152.6383-.4608.7544-.288.116-.6336-.058-.8064-.3482-.1728-.2901-.288-.5802-.4608-.8704-1.3824-3.2494-2.9952-6.2668-4.8384-9.2262-.288-.4642-.5184-.8704-.7488-1.3346-.1152-.174-.1152-.2901-.1152-.4642-.0576-.2901.1728-.5802.4608-.6383.1728-.058.3456.0581.4608.1741.1152.1161.1728.1741.2304.2901 2.1312 3.1915 4.1472 6.441 5.6448 10.0386.1728.4062.288.8124.4608 1.2186.1152.116.1728.2901.1728.4061z"/><path d="m110.651 47.3583c.058.4062-.231.7544-.634.8124-.115 0-.173 0-.288 0-.345-.1161-.633-.2321-.979-.4062-1.44-.8124-2.88-1.5667-4.32-2.3791-1.613-.8704-3.226-1.7988-4.8384-2.6692-.3456-.1741-.6336-.4062-.9792-.6383-.1728-.116-.288-.2901-.4608-.4642-.1152-.1741-.1152-.4062.0576-.5802.1728-.1161.3456-.1741.5184-.1741.1728.058.3456.116.4608.1741l10.1376 5.3384c.288.116.518.2901.806.4642.346.2321.404.3482.519.5222z"/><path d="m105.754 63.7217c.173.058.346.116.519.1741 2.822 1.4506 5.702 2.9593 8.525 4.41.345.174.691.4061.979.6383.288.174.345.5222.23.8123-.115.2902-.461.4642-.806.3482-.115 0-.231-.0581-.288-.1161-.173-.116-.346-.116-.519-.2901-2.534-1.3926-5.126-2.7853-7.661-4.1779-.345-.1741-.691-.4062-.979-.6383-.173-.116-.288-.2321-.461-.4062-.115-.1741-.115-.4642 0-.5802.116 0 .288-.1161.461-.1741z"/><path d="m79.0277 79.6208c0 .5803-.2304.8124-.5184.9284-.4032.1161-.7488-.116-.9216-.4642-1.152-2.7272-2.304-5.5125-3.3985-8.2978-.2304-.5222-.4032-1.1025-.576-1.6827-.1152-.2902-.0576-.5803.2305-.7544.288-.116.6336 0 .7488.2902v.058c.3456.6963.6336 1.3926.9792 2.0889.9792 2.2631 2.0736 4.5261 3.0528 6.7311.2304.3482.3456.7543.4032 1.1025z"/><path d="m109.614 77.0098c.058.2901-.115.6383-.403.7543-.288.1161-.576.1161-.806-.116-.173-.1741-.346-.3482-.461-.5223-1.21-1.8568-2.477-3.7137-3.744-5.5705-.634-.8704-1.21-1.7988-1.786-2.7272-.173-.2322-.173-.5223.058-.7544 0 0 0 0 .057-.058.231-.1741.576-.1741.749.058.115.1161.173.1741.288.2901.519.7544 1.095 1.4507 1.613 2.205 1.21 1.6248 2.304 3.3076 3.456 4.9323.23.2901.461.5803.691.9284.173.2321.288.4062.288.5803z"/><path d="m117.62 41.2658c0 .5223-.288.8124-.633.8124-.288 0-.519-.116-.749-.1741-2.304-1.1605-4.493-2.263-6.797-3.4235-.288-.1161-.518-.2902-.749-.4642-.23-.1161-.288-.4643-.172-.6383.115-.2902.403-.4062.633-.2902.115.0581.288.1161.461.1161 2.246.9864 4.493 2.0309 6.682 3.0174.345.116.633.3481.979.5222.115.1741.23.3482.345.5222z"/><path d="m72.8646 86.7583c0 .6963-.2304.9864-.576 1.0444-.4032.1161-.8065-.1741-.8641-.5802-.4032-1.1606-.8064-2.3211-1.2096-3.4236-.3456-.9864-.6912-1.9149-1.0368-2.8433-.0576-.1741-.1152-.4062-.1152-.5803-.0576-.2321.1152-.4642.3456-.4642.1728 0 .3456.0581.5184.1161.1152.116.1728.2321.2304.3481.8064 1.7408 1.6129 3.5397 2.3617 5.2804.1152.3482.288.7544.3456 1.1026z"/><path d="m122.69 38.3643c-.288-.1161-.634-.1161-.98-.2321l-5.184-1.4507c-.288-.058-.518-.2901-.46-.6383.115-.3481.46-.5802.806-.4642.576.1161 1.152.2901 1.728.4062 1.267.3482 2.592.6963 3.859 1.0445.231.116.461.1741.634.2901.23.1161.288.4062.23.6383-.115.2901-.345.4642-.633.4062z"/><path d="m74.9383 42.1942c-.1152.2901-.288.6383-.4032.9864-.2304.4062-.7488.5803-1.2096.4642-.4608-.1741-.7488-.6383-.6912-1.1025.0576-.2901.1152-.5802.288-.8123.2304-.4643.6912-.6964 1.2096-.5803.5184.116.8064.5803.8064 1.0445z"/></g></svg>