<svg fill="none" height="168" viewBox="0 0 170 168" width="170" xmlns="http://www.w3.org/2000/svg"><path d="m.0579414 77.0103v-4.5841c.0579416-.2321.1158826-.4062.1158826-.6383.057942-1.0445.057942-2.0309.173824-3.0174.289707-2.4371.579414-4.8742.927062-7.3113.34765-2.7853.92706-5.5705 1.6803-8.2978.985-3.4815 2.3756-6.7891 4.11384-9.9225.985-1.7408 1.97-3.4816 3.01295-5.2224 1.5644-2.7852 3.3027-5.3964 5.2147-7.8916 2.2597-2.7852 4.8671-5.2804 7.7062-7.4273 2.8392-2.147 5.7942-4.1199 8.8071-6.0928 4.0559-2.5532 8.2856-4.7001 12.7471-6.499 1.3906-.58023 2.8391-1.10247 4.2297-1.62471 1.7383-.63829 3.5345-1.21855 5.3306-1.79882 1.7962-.58026 3.5924-1.1025 5.3886-1.56671 1.97-.52224 3.9979-1.04448 5.968-1.50869 1.2747-.29013 2.4914-.58026 3.7661-.81237 1.5645-.29013 3.1289-.58026 4.7512-.81237 2.0859-.29013 4.1139-.58026 6.1998-.87039 1.912-.232109 3.8241-.464214 5.7362-.638294 2.4335-.174079 4.867-.4061847 7.3006-.4642111 1.7962-.0580264 3.6503.1740791 5.4465.2321061 2.4338.058026 4.8668.290132 7.3588.580264 2.549.348155 5.099.928425 7.532 1.682765 1.97.58027 3.824 1.27658 5.736 2.03093 1.449.58026 2.897 1.27658 4.288 1.97289 1.506.81237 2.955 1.68277 4.404 2.61119 1.738 1.10252 3.418 2.20502 5.098 3.48162 2.202 1.6827 4.404 3.3655 6.49 5.1643 1.854 1.5667 3.592 3.2495 5.272 4.9323 2.086 2.0889 4.056 4.2939 6.026 6.4989 2.782 3.0174 5.331 6.2669 7.591 9.6904 1.39 2.031 2.607 4.1779 3.65 6.441.695 1.5087 1.391 3.0754 1.97 4.5841.695 1.7407 1.391 3.4815 1.912 5.2804.869 2.6692 1.564 5.3964 2.144 8.1817.29 1.5087.637 3.0754.927 4.5841.406 2.147.695 4.2939.753 6.4409.232 5.1644-.058 10.3867-.985 15.4931-.521 3.2494-1.275 6.4989-2.317 9.6323-.985 2.8435-2.028 5.6865-3.013 8.5295-1.797 4.991-3.303 10.039-5.505 14.855-.985 2.089-1.97 4.236-3.129 6.267-1.274 2.263-2.665 4.41-4.229 6.499-2.666 3.772-5.852 7.195-9.445 10.097-3.418 2.669-6.837 5.338-10.313 7.949-1.855 1.393-3.882 2.553-5.853 3.772-2.491 1.451-5.098 2.727-7.764 3.772-1.332.522-2.665 1.102-4.056 1.566-1.97.639-3.998 1.161-6.025 1.567-1.159.232-2.318.522-3.535.754-1.448.291-2.897.407-4.3455.697-3.882.696-7.7641 1.102-11.7041 1.218-3.94.174-7.938.058-11.878-.232-3.0709-.232-6.1998-.58-9.2127-1.16-4.4615-.813-8.8071-2.205-12.9209-4.178-5.4465-2.727-10.6612-5.745-15.7601-9.11-2.8971-1.973-5.6203-4.294-8.0538-6.848-2.0859-2.146-4.2298-4.235-6.2577-6.382-1.3327-1.393-2.6653-2.786-3.94-4.294-1.1009-1.277-2.0859-2.67-3.1868-4.004-2.2018-2.553-4.1138-5.339-5.8521-8.24-1.4485-2.437-2.78116-4.932-3.93998-7.543-.63736-1.509-1.21677-2.96-1.79619-4.468-.34764-.929-.69529-1.915-.985-2.902-.40559-1.45-.6953-2.843-1.04294-4.294-.34765-1.624-.75324-3.191-.98501-4.8159-.34765-2.3791-.69529-4.8162-.927059-7.2533-.231766-2.4371-.40559-4.9322-.521473-7.4274-.115882-2.1469-.231765-4.2939-.347648-6.3829.173824-.2321.115883-.3481.0579414-.5222z" fill="#fff"/><path d="m75.1504 75.8497c6.4315-2.7853 14.1377-2.9594 20.3953.116 0-.5802 0-1.1605 0-1.6827-.0579-1.6828-.1159-3.4236-.2317-5.1063-.1739-2.147-.5215-4.352-.985-6.441-.3477-1.6827-1.043-3.2495-2.028-4.6421-.985-1.4507-2.4335-2.6112-4.0559-3.4235-1.2168-.5803-2.6073-.7544-3.94-.5223-.7532.1161-1.4485.2321-2.1438.3482-1.1589.2321-2.2597.7543-3.1868 1.4506-.9271.5803-1.6803 1.3346-2.3756 2.205-.8112 1.2186-1.2747 2.6112-1.4485 4.0619-.1159.8124-.2318 1.6828-.3477 2.4951-.1159.5223-.1159 1.0445-.1738 1.5667-.0579.6964-.1159 1.3927-.1159 2.089-.1738 2.6112-.2318 5.2804-.2318 7.8916.2318-.058.5215-.2321.8692-.4062z" fill="#a6e8a1"/><path d="m136.568 53.5674c0-.2901.348-5.8026-2.028-6.4989-.811-.2322-3.998-.5803-4.809-.7544-.753-.116-1.448-.2901-2.144-.4062-.116-.058-.289-.058-.347-.058-1.681-.058-12.052-4.468-14.08-5.6286-1.564-.8704-19.5263-9.4583-20.6272-10.3867-.8691-.7543-1.7961-1.3926-2.6653-2.147-.5214-.4062-.985-.8704-1.4485-1.3346-.5215.4642-1.0429.9285-1.5644 1.3927-1.3327 1.1605-2.6074 2.321-3.998 3.4815-2.6073 2.147-5.3306 4.1199-8.1697 5.9768-1.5644.9864-3.2447 1.9729-4.8091 2.9013-1.9121 1.0445-3.8821 2.0889-5.8521 3.0174-1.7383.8123-3.4765 1.5667-5.2727 2.379-3.8821 1.6828-7.7641 3.0754-11.7621 4.352-2.7812.8704-5.6203 1.6828-8.4015 2.4952-1.4485.4061-2.8971.8123-4.3456 1.2185-.3476.1161-.3476.2901-.3476.5803-.058 2.5531-.1159 23.2105-.1159 23.3266.0579 2.0309.1159 4.0618.1159 6.0928 0 1.0444.0579 2.1469.1158 3.1914.058 1.0445.2318 2.263.3477 3.3655.1159.9865.1159 1.9729.2318 2.9594.1158.7543.1738 1.4506.2897 2.147.1158.7543.1738 1.3346.2317 2.0309.1159 1.3926.3477 2.7857.6374 4.1197.4635 1.683.8112 3.308 1.3906 4.932.927 2.786 1.912 5.513 3.0709 8.182.927 2.031 1.97 4.004 3.1288 5.919.8112 1.392 1.7382 2.669 2.7232 3.946.4636.58.985 1.16 1.5065 1.682.5215.523 1.043.987 1.6224 1.451.6953.58 1.3906 1.103 2.0859 1.625 1.6223 1.218 3.2447 2.379 4.867 3.481 1.9121 1.277 3.9401 2.437 5.968 3.598 2.7233 1.567 5.4465 3.017 8.1697 4.584 2.2018 1.219 4.5195 2.321 6.8371 3.25 1.7383.754 3.5345 1.276 5.2148 2.263.1158.116.2317.116.3476.232h.3476c.1739-.174 1.6804-.465 2.2018-.639 2.4915-.812 4.925-1.624 7.3586-2.495.6373-.232 1.2167-.58 1.7962-.812 2.1438-.987 4.1717-1.915 6.316-2.843.347-.116 9.096-5.571 10.371-6.557 1.333-.987 2.55-2.147 3.477-3.54.579-.754 1.216-1.451 1.97-2.031 1.043-.986 2.085-2.031 3.07-3.017 1.565-1.567 3.709-2.786 4.925-4.584 1.275-2.031 4.868-9.575 5.099-10.387.58-2.205 1.797-3.134 2.318-5.339.348-1.566 1.564-6.2083 1.854-7.8331.348-1.9148 2.144-20.6574 2.144-21.4117.058-1.1606.579-3.3075.579-4.5261.058-3.9458 0-11.141 0-11.141-.231-.2322.058-5.1644.058-5.8027zm-25.436 49.1486c-.464 1.683-1.101 3.249-1.912 4.758-.869 1.683-1.912 3.191-3.129 4.642-.927 1.103-1.912 2.147-3.013 3.017-1.332 1.161-2.723 2.205-4.1137 3.25-1.3326.986-2.7812 1.915-4.2297 2.611-1.6803.812-3.4765 1.393-5.2727 1.625-1.912.174-3.882.29-5.7941.232-1.6224 0-3.2447-.232-4.8091-.58s-3.0709-.813-4.5774-1.451c-1.4485-.58-2.8391-1.393-4.0559-2.379-1.3326-1.161-2.5494-2.379-3.5924-3.772-.8111-.928-1.4485-1.915-1.97-2.959-.7532-1.625-1.3906-3.308-1.912-5.048-.1739-.813-1.1009-4.643-1.2168-5.513-.5794-5.3384.2318-11.9534 2.955-16.6535.3477-.5803.7532-1.1605 1.1009-1.6828.0579-1.4506.1159-2.9013.1159-4.352 0-2.9013-.058-5.8026 0-8.7039 0-1.3346.1738-2.6112.2897-3.9458.0579-.5223.1159-.9865.1159-1.5087.1158-1.6828.4056-3.3655.8111-4.9903.8112-2.7852 2.0859-5.3964 3.8821-7.7175 1.2168-1.5087 2.7233-2.7272 4.4036-3.5976 1.0429-.5803 2.1438-1.1606 3.3026-1.6828 1.97-.8124 4.0559-.8124 6.1418-.6383 1.3906.1161 2.7812.3482 4.1139.6963 1.4485.3482 2.8391.8704 4.1138 1.6828.3476.2321.6953.5222 1.0429.8124.1739.116.3477.116.4636.2321.7532.9864 1.4485 1.9148 2.1438 2.9013.0579.058.0579.1161.0579.1741.058.116.1159.116.1159.1741l.058.116c.1158.1161.2317.1741.3476.2901 1.7962 2.5532 3.1288 5.3965 3.9398 8.4139.348 1.5087.753 3.0173 1.043 4.526.116.5803.116 1.1025.116 1.6828.116 1.7408.174 3.4816.232 5.2224.058 2.263.116 4.468.116 6.731v.1161c.405.1741 5.272 4.7001 6.895 8.6459.811 1.9149 1.39 3.9458 1.738 6.0348.116.7543.174 1.4506.232 2.1469.058.8124.116 1.6248.116 2.3791.173 1.4511-.058 2.7851-.406 4.0621z" fill="#a6e8a1"/><path d="m66.2855 78.4607c.1159 1.4507 1.4486 1.2766 4.3456-.3482 6.953-5.8026 2.3756-9.0521 5.91-19.9611 12.3995-12.8238 20.5692 5.2804 18.4833 16.8857 2.8971 2.031 5.5046 4.0039 6.6636 3.0754 2.144-1.7408-.811-19.2067-2.6656-24.0809-8.9809-9.4583-17.7301-8.9361-25.2045-4.9903-5.968 3.2495-8.6912 17.9882-7.5324 29.4194z" fill="#5dd4f6"/><path d="m61.418 95.6948v-2.3211c.0579-.058.1158-.116.1158-.1741.1159-1.3346.058-2.7852.4636-4.0618 1.6803-5.2804 11.7041-15.7832 18.773-16.7697 2.0279-.3481 4.1138-.3481 6.1418-.116 1.1588.116 2.3176.4062 3.4765.6383 4.3456.8704 8.2276 2.7853 11.2983 5.9767 5.91 6.0928 6.258 20.7154 3.477 26.4019-.811 1.045-1.565 2.205-2.376 3.308-.348.464-.637.928-1.043 1.276-.985.813-2.0857 1.625-3.0707 2.379-.985.813-11.0089 5.281-13.0948 5.281-.1159 0-.1738.058-.2897.116h-1.2168c-.0579-.058-.1158-.116-.1738-.116-.8112-.116-1.5644-.116-2.3756-.232-1.6803-.116-3.3026-.523-4.8671-1.161-2.6653-1.102-5.2726-2.495-7.7062-4.12-.6373-.406-1.2167-.928-1.6803-1.45-2.7811-3.018-4.3456-6.732-5.3885-10.6773-.3477-1.2186-.4635-2.4371-.4635-3.7137.1159-.1161.0579-.2902 0-.4642zm19.4103 1.1605c.4056-.3482.8112-.5803 1.2168-.9284 2.2597-1.6828 2.7232-4.8162 1.0429-7.0793 0-.058-.0579-.058-.1158-.116-.8112-1.2186-1.97-2.089-3.3606-2.3791-1.8542-.4062-3.7662-.5222-5.6204-.2901-.5794.058-1.2167.2321-1.6803.5802-.2897.1161-.4055.4062-.4055.7544v1.1605c0 1.5667-.1159 3.1915 0 4.7582.1158 2.6692.2897 5.3384.3476 7.9493 0 .29.0579.581.1159.813.1159.232.2318.406.4056.522.5215.174 1.0429.348 1.5644.348.985.116 1.9121.116 2.8971.116h5.1567c.4636 0 .9271-.116 1.3906-.232.4056-.116.6374-.522.5795-.928 0-.058-.058-.116-.058-.116-.0579-.175-.1159-.349-.2897-.581-.2897-.464-.5794-.87-.9271-1.2763-.6953-1.0445-1.4485-1.9729-2.2597-3.0754zm14.7751-2.7272c.1738-.1161.3476-.2322.4635-.3482 1.5644-.9865 2.2597-2.7853 1.7383-4.5841-.5215-2.147-1.9121-3.2495-4.1139-3.2495-.8691 0-1.7382 0-2.6073.0581-1.2168.116-2.3756.2901-3.5924.4642-.4635.116-.8112.5222-.8691.9864v.5803c-.058 1.8568.1158 3.7137.1738 5.5705.1159 2.3211.1738 4.5841.2897 6.8472 0 .406.1159.812.1738 1.218.1159.523.5794.929 1.1009.987.4056.116.8112.116 1.2168.116 1.7382-.116 3.4765-.174 5.2147-.348.985-.116 1.97-.406 2.7812-.987 1.0429-.696 1.6223-1.8565 1.5644-3.075-.1159-.9284-.3476-1.7988-.8691-2.5532-.3477-.5802-.8112-.9864-1.3327-1.2185-.4635-.1161-.8691-.2902-1.3326-.4642z" fill="#ff596f" opacity=".9801"/><g fill="#1d184e"><path d="m137.321 48.9833c-.116-.8704-.231-1.6828-.521-2.5532l-.058-.1741-1.101-.174c-.811-.1161-1.506-.2321-2.26-.3482-3.129-.5222-6.141-1.3346-9.154-2.3791-3.477-1.2185-6.895-2.6692-10.198-4.0038-3.94-1.5667-7.822-3.3655-11.53-5.3384-5.5049-3.0754-10.8355-6.6731-15.6446-10.7929l-.3477-.3482c-.5215-.4062-.985-.8124-1.5065-1.2186-.2897-.174-.5794-.3481-.8691-.3481h-.1159-.1158c-.985.5803-1.9121 1.2766-2.7812 2.0889-2.2597 2.2631-4.6933 4.41-7.2427 6.3249-.5794.4062-1.0429.8124-1.6224 1.2186-1.2747.9864-2.6073 2.0309-4.0559 2.8433-3.1288 1.8568-6.3735 3.5396-9.7341 5.0483-4.1138 1.8568-8.4595 3.4235-12.6312 4.9322-.8112.2901-1.5065.5803-2.3177.8124-2.5494.9284-5.2727 1.7408-7.9959 2.0309-.3476.058-.6953.1161-.985.2901-.5794.2902-.8691.8704-.7532 1.4507.1158.5803.6373.9864 1.2167.9864h.4056c1.97-.116 3.94-.5222 5.7942-1.0444 2.2017-.6383 4.3456-1.4507 6.4894-2.205.985-.3482 1.9121-.6964 2.8971-1.0445 5.9679-2.147 11.82-4.7582 17.3824-7.8916 2.6073-1.5087 5.2147-3.3075 7.5324-5.2224 1.912-1.4506 3.7661-3.0174 5.5044-4.7001.7532-.8124 1.5065-1.5087 2.2597-2.263.3477-.2902.5794-.5803.8691-.8704l.058-.0581c.3476.3482.7532.6383 1.1588.9865.985.8704 1.97 1.7408 3.0129 2.5531 4.1718 3.4816 8.8071 6.499 13.5582 8.9941 7.069 3.7137 14.428 6.615 20.743 8.9941 3.245 1.2186 6.663 2.147 10.082 2.7273.463.116.985.116 1.448.2321.174.058.348.058.58.116.058.4062.058.8124.116 1.2186.116.9284.116 1.9149.174 2.8433.231 4.7001.231 9.6904.058 15.2609-.116 3.3075-.348 6.615-.58 9.9225-.116 1.1025-.116 2.2631-.232 3.3656-.231 3.4815-.579 6.9631-1.101 10.2126-.579 4.0038-1.448 8.0657-2.665 11.9534-.985 3.366-2.375 6.673-3.94 9.807-.869 1.682-1.97 3.249-3.013 4.758-.347.464-.637.87-.927 1.334-2.549 3.598-5.504 6.847-8.807 9.691-6.142 5.28-13.037 9.458-20.5112 12.475-2.2597.929-4.6353 1.683-7.0109 2.379l-.5794.117c-.5794.116-1.2168.348-1.7383.464-.5214.116-.927.522-.985.986-.0579.348 0 .871.2897 1.219.1739.232.4056.348.6953.348s6.0839-1.509 7.7062-2.031c4.7512-1.683 9.3286-3.83 13.6166-6.383 8.807-5.106 16.455-12.36 22.017-20.947 2.144-3.308 3.825-6.906 5.041-10.619 1.449-4.062 2.55-8.2401 3.245-12.476.579-3.0174.927-6.0928 1.217-8.9361.174-1.7988.347-3.6556.463-5.3964l.116-1.4507c.116-2.147.348-4.2939.406-6.3829.116-3.0174.174-6.1508.174-9.1682v-.5802c-.116-4.5841-.116-9.1682-.696-13.6362z"/><path d="m88.8823 117.919c6.1998-1.045 11.8197-4.642 15.4127-9.807 3.708-4.99 5.272-11.3148 4.229-17.4076-.579-3.8877-2.143-7.4854-4.635-10.5608-.174-.2321-.29-.5222-.29-.8123 0-1.2766-.057-2.5532-.057-3.7718l-.058-1.6247h-.058c0-.4062 0-.8124 0-1.2186 0-1.2185-.058-2.4951-.116-3.7717-.116-1.4506-.29-2.9593-.464-4.352l-.116-1.0444c-.289-2.4371-.869-4.8162-1.796-7.0793-.753-1.7988-2.9549-4.6421-3.6502-5.6285-.1158-.1161-.1738-.2321-.1738-.2321-.2897-.5803-4.6353-4.4681-8.1697-5.0483-2.3756-.7544-4.983-.9865-8.2277-.6963-.6373.058-1.3326.174-1.97.3481-2.4335.7544-4.6932 2.089-6.5474 3.8878-.1738.1741-.3476.3481-.5794.5222-.8112.4642-1.5065 1.1606-2.0279 1.9149-1.97 2.7272-3.2447 5.9187-3.5924 9.2842-.2318 1.6828-.4635 3.4816-.5794 5.2224-.1738 2.9013-.3477 5.4545-.4056 7.7755-.0579 1.4507 0 3.0174 0 4.41v2.205c0 .3482-.1159.8124-.3476 1.1026-3.8242 5.3384-5.2727 11.3151-4.1139 17.582.8112 5.0487 3.3606 9.7487 7.2427 13.1137 4.6932 4.062 10.0238 6.151 15.9918 6.151 1.6803 0 3.3606-.116 5.0988-.464zm-13.2685-46.3053c0-.2901.0579-.5802.0579-.8123.058-.5223.058-.9865.1159-1.5087.0579-1.2766.1159-2.6692.2318-4.0038.1158-1.5087.1738-2.7853.4056-4.1199.2897-1.8569 1.3905-3.3075 3.3606-4.5841.8111-.5803 1.6803-.8704 2.6073-.9864h.5215c.4056 0 .8112-.0001 1.2168.058.7532.058 1.4485.116 2.2017.3481 2.028.4062 3.7662 1.6248 4.8671 3.3075.0579.1161.1159.1741.1738.2902.8691.9284 1.1589 2.1469 1.4486 3.3655l.1158.3482c.4056 2.0309.6374 4.0618.6374 6.1508.0579.8123.0579 1.6827.1159 2.5531v.8124c-1.6803-.7544-3.4765-1.2186-5.3306-1.4507-1.6224-.2321-3.2447-.2901-4.8671-.116-2.5494.1741-5.0409.8123-7.4744 1.7988-.1159.058-.2898.116-.4056.116-.058-.5222 0-1.0444 0-1.5667zm21.3224 2.9014-.1159-.0581c-.1738-.058-.3476-.116-.5215-.3481-.1158-.1741-.1738-.4062-.1158-.5803v-.058c0-2.4952-.1159-5.0483-.4636-7.4854-.0579-.3482-.0579-.6963-.1159-1.0445-.0579-.7543-.1158-1.4507-.2897-2.205-.4635-2.3211-1.5064-4.468-3.1288-6.1508-1.6224-1.7988-3.8241-2.9013-6.1997-3.1915-.8112-.116-1.5644-.174-2.6074-.2901-1.0429-.116-2.1438.058-3.0709.4642-2.0859.8124-3.8241 2.147-5.0988 3.9458-.7533.9865-1.2168 2.263-1.3906 3.4816-.2318 1.2766-.3477 2.6112-.4056 3.9458-.1159 2.5532-.2318 5.1643-.2897 7.6595l-.058 1.6828c0 .116-.1158.2901-.2317.3481-1.3327.6963-2.5494 1.5087-3.7083 2.4951-.3476.3482-.7532.6383-1.1008.9865-.1739.1741-.3477.3482-.5795.5222 0-.116 0-.116.058-.2321v-.116c0-.5803 0-1.0445 0-1.6248 0-1.1605 0-2.379.0579-3.5396.1159-2.147.2318-4.1199.4056-6.0928.1738-2.263.4635-4.468.6953-6.1507.0579-.2902.0579-.5223.1159-.8124.1159-1.1025.2897-2.263.6373-3.3075.6953-1.9149 1.8542-3.6557 3.2448-5.0483.985-1.0445 2.2017-1.9729 3.4764-2.6692 1.9121-1.0445 4.0559-1.6828 6.1998-1.7408.4056 0 .8112-.0581 1.2167-.0581 1.5065 0 3.013.1741 4.4615.5223 2.8971.7543 5.1568 1.9149 6.8371 3.6556.1159.1161.1738.1741.3477.3482 1.8541 1.4507 2.7811 3.4236 3.7082 5.5125.8691 2.205 1.4488 4.468 1.6798 6.8471l.116.7544c.116 1.1025.29 2.263.406 3.4235.116.9285.116 1.9149.116 3.0754.058 1.9729.058 4.0039.058 5.9767-1.043-.7543-3.8823-2.6111-4.3458-2.8432zm-24.0457 2.9593c2.6653-1.8568 5.8521-2.9593 9.7342-3.4236.5794-.116 1.2167-.116 1.7382-.116.1738 0 .4056 0 .5794-.058 6.3736.116 11.4145 2.1469 15.4127 6.2668 2.955 2.9594 4.925 6.9052 5.504 11.0831.985 7.0792-1.159 13.2303-6.3734 18.3943-3.3026 3.25-7.4744 5.28-11.9939 5.977-1.2167.232-2.3755.348-3.5923.348-7.938 0-15.4124-4.584-18.8889-11.954-1.6803-3.423-2.2597-7.2528-1.7382-11.0245.8111-6.441 4.0559-11.6633 9.6182-15.4931z"/></g></svg>