<svg fill="none" height="105" viewBox="0 0 107 105" width="107" xmlns="http://www.w3.org/2000/svg"><path d="m.03649 47.9962v-2.857c.0364899-.1446.07298-.2531.07298-.3978.03649-.6509.03649-1.2657.10947-1.8805.18245-1.519.3649-3.0379.583839-4.5568.218941-1.7359.583841-3.4718 1.058211-5.1715.62033-2.1699 1.49609-4.2313 2.59079-6.1842.62033-1.0849 1.24066-2.1699 1.89748-3.2548.98522-1.7359 2.07992-3.3633 3.28409-4.9184 1.42315-1.7359 3.06515-3.291 4.85315-4.6291s3.649-2.5677 5.5465-3.7973c2.5543-1.5912 5.2181-2.92929 8.0278-4.0504.8757-.36164 1.788-.68713 2.6638-1.01261 1.0947-.39781 2.2258-.75945 3.357-1.1211s2.2624-.68713 3.3936-.97645c1.2407-.32548 2.5178-.65096 3.7585-.94028.8027-.18082 1.569-.36164 2.3718-.5063.9852-.18083 1.9705-.36165 2.9922-.50631 1.3136-.18082 2.5908-.361642 3.9044-.542466 1.2042-.144658 2.4084-.289318 3.6125-.397812 1.5326-.108494 3.0652-.2531518 4.5978-.28931642 1.1312-.03616468 2.2988.10849442 3.43.14465942 1.5326.036164 3.0652.180823 4.6342.361646 1.6056.216988 3.2112.578629 4.7437 1.048769 1.2407.36165 2.4084.79563 3.6126 1.26577.9122.36164 1.8245.79562 2.7002 1.2296.9488.5063 1.861 1.04877 2.7732 1.6274 1.0947.68713 2.153 1.37426 3.2112 2.16988 1.3866 1.04878 2.7732 2.09755 4.0868 3.21862 1.1677.9765 2.2624 2.0253 3.3206 3.074 1.3137 1.302 2.5543 2.6762 3.795 4.0505 1.7515 1.8805 3.3571 3.9058 4.7802 6.0395.8759 1.2657 1.6419 2.6038 2.2989 4.0142.438.9403.876 1.9168 1.241 2.857.437 1.085.875 2.1699 1.204 3.291.547 1.6636.985 3.3633 1.35 5.0992.182.9403.401 1.9168.584 2.8571.255 1.338.438 2.6761.474 4.0142.146 3.2187-.036 6.4735-.62 9.656-.329 2.0252-.803 4.0504-1.46 6.0033-.62 1.7721-1.277 3.5441-1.897 5.3162-1.131 3.1102-2.08 6.2565-3.4668 9.2582-.6204 1.3019-1.2407 2.64-1.9705 3.9057-.8028 1.4105-1.6785 2.7486-2.6638 4.0505-1.6785 2.3507-3.6855 4.4844-5.9478 6.2926-2.1529 1.6636-4.3059 3.3272-6.4953 4.9546-1.1676.8679-2.4448 1.5912-3.6854 2.3507-1.5691.9041-3.2112 1.6997-4.8897 2.3504-.8393.326-1.6785.687-2.5543.977-1.2407.398-2.5178.723-3.795.976-.7298.145-1.4596.326-2.2258.47-.9123.181-1.8245.253-2.7368.434-2.4448.434-4.8896.687-7.371.76-2.4813.108-4.9991.036-7.4804-.145-1.934-.145-3.9044-.362-5.8019-.723-2.8097-.506-5.5465-1.374-8.1373-2.604-3.43-1.6998-6.7141-3.5803-9.9252-5.6779-1.8245-1.2296-3.5396-2.6762-5.0722-4.2674-1.3136-1.3381-2.6637-2.64-3.9409-3.9781-.8392-.868-1.6785-1.7359-2.4813-2.6762-.6933-.7956-1.3136-1.6636-2.0069-2.4954-1.38666-1.5912-2.59083-3.3271-3.68552-5.1354-.91225-1.5189-1.75152-3.074-2.48132-4.7014-.40139-.9402-.76629-1.8444-1.13119-2.7846-.21894-.5787-.43788-1.1935-.62033-1.8083-.25543-.9041-.43788-1.772-.65682-2.6762-.21894-1.0126-.47437-1.989-.62033-3.0016-.218941-1.4828-.437881-3.0017-.58384-4.5206-.14596-1.5189-.25543-3.074-.32841-4.6291-.07298-1.3381-.1459601-2.6762-.21894-3.9781.10947-.1446.0729799-.217.03649-.3255z" fill="#fff"/><path d="m92.5014 51.3174c-.2532-1.6729-.8018-3.2202-1.8145-4.6003-.7174-1.0037-1.4769-2.0075-2.2787-2.9693-1.3503-1.7147-2.996-3.1784-4.7261-4.4749-1.2659-.9619-2.6162-1.8401-4.0509-2.5511-1.4769-.7528-2.9538-1.4219-4.4307-2.1747-.2532-.1255-.5486-.2509-.7596-.46-.8439-.7528-1.6457-1.5474-2.4896-2.342-.3376-.2928-.6752-.5019-1.1394-.3346-.4641.1255-.9705.1673-1.3503-.2509-.1266-.1255-.2954-.2091-.4641-.3764-.0844.1255-.1266.1673-.1688.2509-.2532.3764-.2532.3346.0844.6692.0844.0836.1688.2509.1266.3345-.0422.3764.1265.6274.3797.8783.211.1673.422.3764.633.5855 1.6035 1.4637 3.2492 2.9275 4.8527 4.433 1.3503 1.2547 2.6162 2.5511 3.9243 3.8476.2532.2509.3798.5018.3376.8782-.0844 1.5056-.1688 3.0111-.211 4.5167v.46c-.0844 1.3383-.211 2.6766-.2954 4.0149-.0421.8782.0001 1.7146-.0421 2.5929 0 .2091.0843.3345.2531.46.633.46 1.266.8782 1.8567 1.3801 1.5191 1.3801 2.4897 3.0948 3.0382 5.1022.3376 1.3383.4642 2.6765.0844 4.0148-.1266.5019-.2954 1.0037-.4219 1.5056-.1688.5855 0 1.0873.4219 1.3382.6752.3764 1.9833.4601 2.4475-.6273.211-.5018.4219-.9619.6329-1.4637.0844-.1673.1688-.3346.2954-.4182.2954-.2928.633-.5019.9284-.7946 0-.0837.0844-.0837.1687-.0837.7596.0837 1.1816-.1254 1.5192-.7946.1687-.3345.2953-.6273.4219-.9619.2532-.8364.5064-1.6728.8018-2.4674.6329-1.8401 1.0127-3.6803.9705-5.604 0-.2928.0422-.5855.1266-.8365.3798-.8782.5064-1.7983.3376-2.6765z" fill="#5dd4f6"/><path d="m26.4203 33.2085c0-.46 0-.9201 0-1.4219.0422-.0418.0844-.0837.0844-.1673.3376-.8783 1.0128-1.4637 1.8567-1.882.4642-.2509.9706-.3763 1.4347-.5855 3.0804-1.3801 6.1187-2.7602 9.1991-4.1402 2.8694-1.2965 5.7388-2.593 8.6082-3.8476 1.6457-.711 3.2914-1.3801 4.9371-2.091.2954-.1255.4642-.0837.7174.0836.5063.3764 1.0971.7528 1.5613 1.171 2.9116 2.5093 5.6122 5.2694 8.3129 7.9878 3.5445 3.5966 7.0891 7.1933 10.6337 10.7899.9705 1.0037 2.0255 1.9238 2.996 2.8856.422.4182.6752.9619.8439 1.5474.1266.4182.0422.8783 0 1.3383-.1687 1.631-.3797 3.262-.5063 4.8931-.2954 3.0947-.5486 6.1477-.844 9.2424-.1266 1.171-.2532 2.342-.3797 3.4712-.0422.3764-.1688.6273-.5486.7528-.4642.2091-.844.46-1.2659.7109-2.2365 1.2965-4.4308 2.6766-6.7094 3.9312-1.8989 1.0874-3.84 2.0493-5.7389 3.0948-2.363 1.2964-4.7261 2.6347-7.0891 3.973-.5908.3346-1.2659.5437-1.8567.8782-.5486.2928-1.0127.2928-1.4769-.0418-.8861-.6691-1.7723-1.3801-2.6162-2.0492-2.7851-2.2584-5.4013-4.6422-7.8909-7.1514-1.5613-1.5892-3.207-3.1366-4.6839-4.7676-2.4897-2.7602-4.8106-5.6459-7.0048-8.6152-.1688-.2091-.2532-.5019-.2954-.7528-.422-3.0529-.8439-6.1059-1.2659-9.1588-.422-3.0948-.6752-6.1895-.7596-9.3261-.1688-.3346-.211-.5437-.2532-.7528z" fill="#ff596f"/><path d="m64.9887 38.1428c-2.6584-3.5548-8.6083-10.8317-12.4904-10.9989-1.6035-.0837-12.1951 3.9311-13.4188 5.9804-1.1815 1.9238 8.988 12.7554 13.2078 14.3865-.0422 0 15.402-5.7714 12.7014-9.368z" fill="#fff"/><g fill="#19124f"><path d="m53.7643 56.338c-.0844 1.0874-.1266 2.1747-.211 3.2621-.211 3.4293-.422 6.9004-.633 10.3298-.0844 1.4219-.2531 2.8438-.4219 4.2239-.0422.2091-.0844.46-.1688.6692-.1266.2509-.3798.3763-.6752.3345s-.4641-.1673-.5485-.4182c-.0422-.1673-.0844-.3764-.0844-.5855.0422-2.3838.0422-4.7676.1265-7.1514.1266-3.3039.2954-6.6496.422-9.9534 0-.3764-.0844-.6274-.3376-.8783-4.1353-4.0985-8.2706-8.1551-12.3638-12.2954-3.418-3.4293-6.7516-6.9423-10.1273-10.4135-.1688-.1672-.2954-.3345-.3798-.5018-.1688-.2928-.1266-.5437.0844-.7946.211-.2091.5063-.2509.8017-.0837.2532.1673.4642.3346.6752.5437 3.207 3.053 6.4562 6.1059 9.6632 9.2007 4.2197 4.0984 8.3973 8.2806 12.5748 12.379.422.4182.7595.4182 1.2659.1673 1.4769-.7528 2.996-1.4637 4.4729-2.2165 3.5024-1.7147 7.047-3.3875 10.5494-5.0604 2.1942-1.0455 4.3885-2.0492 6.5828-3.0529.1687-.0837.2953-.1255.4641-.1673.3376-.0418.633.0836.7596.3764.1266.2927.0422.6273-.211.7946-.211.1673-.422.2927-.633.4182-1.7301.9201-3.5023 1.8401-5.2324 2.7184-3.6712 1.8401-7.3424 3.6802-11.0136 5.5204-1.5613.7946-3.1226 1.5474-4.6417 2.3001-.2531.1673-.4641.251-.7595.3346z"/><path d="m51.7809 32.206c-.5063 1.0873-1.0127 2.0492-2.4474 1.9237-.3376 1.2547-.8018 2.342-2.2787 2.5093-.0844.1673-.1266.2927-.1688.4182-.2531.5437-.7173.7528-1.2659.6691-.3798-.0418-.6329-.2927-.6329-.5854-.0422-.2928.1265-.5019.5485-.6274.0844-.0418.1688-.0418.3376-.0836-.2532-.1673-.422-.2928-.5908-.4182-.7595-.5437-1.3503-1.2547-1.6457-2.1747-.0844-.2928-.1266-.6692-.0844-.9619.0844-.6273.7174-.9619 1.3504-.7946.6751.1673 1.0971.6273 1.4347 1.2128.2532.4182.3797.8782.5907 1.3383.0422.1673.0844.2927.1688.46.3376-.0836.4642-.3346.5908-.5855.211-.5855.2954-1.2128.1688-1.8401 0-.0837-.0422-.2091-.0844-.2928-.0422-.4182.1688-.7946.5485-.92.3798-.1255.7174.0418.9284.4182.1266.1673.211.3764.3376.5437.0422.0418.0844.0418.1688.0836.0843-.0836.1687-.1673.2531-.2927.0844-.1255.1688-.2928.2532-.4601.5064-1.2964 1.2659-1.3801 2.7429-1.1291.4219.0836.6329.4182.5907.7946-.0422.3763-.2954.6691-.7173.7109-.422.1255-.7174.0837-1.0972.0837z"/><path d="m53.0469 36.7239c.2954-.251.5064-.4601.7596-.6692.5063-.4182.9705-.8364 1.5191-1.171.2954-.2091.6751-.3345 1.0127-.4182.5486-.1673 1.055.1255 1.1815.5855.1266.4601-.1265.9201-.6751 1.0455-.5908.1673-1.0971.5437-1.5191.9201-.2954.2509-.5486.5437-.8862.7528-.7173.5855-1.1815.6691-2.152.46-.211.2928-.3798.5855-.5908.9201-.4642.6273-.9705 1.171-1.7301 1.4219-.6751.2509-1.3925.2928-2.0255-.1673-.1266-.0836-.2531-.2091-.3375-.3345-.1688-.2091-.1688-.4601 0-.711.1687-.2091.4641-.2927.6751-.1673.7174.4182 1.2659.0837 1.7301-.4182.5064-.5437.844-1.2128 1.1393-1.8819.0844-.1673.1266-.2928.211-.4601.3376-.5437.9706-.5855 1.3925-.1254.1266.1672.1688.2509.2954.4182z"/><path d="m56.3806 41.6151c-.0844 0-.1266.0418-.211 0-.5064-.251-.8439.0418-1.1815.3764-.2954.2927-.633.5855-1.0128.8364-.4641.3345-1.0127.46-1.6035.2927-.3375-.0836-.6329-.2509-.7595-.5437-.0844-.1672-.0422-.4182.0422-.6273s.3376-.2927.5485-.2091c.5908.251.9706-.0836 1.3082-.4182.3797-.3764.7173-.7528 1.0971-1.1292.3376-.3763.8017-.46 1.2659-.3345.422.1254.8018.0418 1.1393-.2091.6752-.4182 1.3504-.8783 2.0677-1.2965.1266-.0836.2954-.1673.4642-.2091.2954-.0836.5908-.0418.8017.1673.2532.2509.2954.5437.1688.8364-.1266.2509-.2954.5019-.5485.6273-.633.4182-1.3082.8365-1.9833 1.2128-.422.3764-.9706.6274-1.6035.6274z"/></g><path d="m27.9394 86.6145v.6273c.0421 1.5055-.0422 3.0111-.211 4.4748-.0422.3346-.0422.711-.3798 1.0038-.3376.2927-.5486.2927-.844-.0419-.9283-.92-1.6035-2.0074-2.2364-3.1365-1.3925-2.342-2.8272-4.7258-4.3041-7.0678-.5908-.9619-1.1816-1.9238-1.6879-2.8857-1.1816-2.2165-2.4053-4.3912-3.5868-6.6077-.1688-.3346-.3376-.711-.5064-1.0037-.4642-.711-.2532-1.3383.211-1.9238 1.1393-1.3383 2.3209-2.6765 3.4602-4.0148.2532-.2928.5486-.5437.8017-.8364.9706-.9619 1.9411-1.9656 2.996-2.9275 1.2238-1.1292 2.4897-2.2165 3.7556-3.3457.422-.3764.8862-.6692 1.3503-1.0455.2532-.2092.5064-.2092.8018-.2092.211 0 .3376.0837.422.251.2531.5436.4641 1.171.4641 1.7565 0 1.5055 0 2.9693.0422 4.4748.0422 1.1292.0844 2.2165.211 3.3457.0422.46.2532.8783.3798 1.3383s.7595.7109 1.3081.5018c.3798-.1672.7174-.1672 1.0971.0419 1.3081.5855 2.6585 1.1291 4.051 1.4637 1.5613.3764 3.1648.6691 4.7683.5855.3376-.0418.6751-.0836.8861-.3346.1266-.1673.2954-.1673.5064-.1254 1.5613.2927 3.1648.6273 4.7261.92.8439.1673 1.6879.251 2.5318.3764 1.0972.1255 2.1943.251 3.2914.3764.4642.0418.9284.0837 1.3925.1255 1.0972.0418 2.1943.0836 3.2914.1254.9706.0419 1.8989.1255 2.8695.0837 1.1393-.0418 2.3208-.1673 3.4601-.2509.5064-.0419 1.055-.0837 1.5613-.1255 2.1521-.0837 4.262-.46 6.3296-.9619 1.5192-.3764 3.0805-.7528 4.5996-1.171.6329-.1673 1.2659-.4182 1.8988-.7109 2.4475-1.1292 4.7261-2.5093 6.7938-4.1822 1.7301-1.3801 3.1226-3.0529 4.2198-4.9767.8439-1.4637 1.4347-3.0529 2.0676-4.6003.5064-1.171.7174-2.3838 1.0128-3.5966.0421-.2091.0843-.4182.2109-.5437.1266-.1673.3376-.2927.5486-.2927.1266 0 .2532.2091.3798.3345.0422.0419.0422.1255.0844.1673.7595.7528.5063 1.5892.2954 2.4256-.7174 3.3876-1.4769 6.7751-2.1943 10.1626-.4642 2.1747-.8862 4.3075-1.4347 6.4404-.422 1.7565-.9706 3.4712-1.4769 5.2277-.0422.2091-.1266.46-.211.6691-.211.8783-.7596 1.631-1.3081 2.342-.8862 1.0455-1.7723 2.0492-2.8694 2.8438-.844.6273-1.7723 1.2128-2.6585 1.8402-1.5191.9618-3.0382 1.8819-4.6839 2.6765-2.5318 1.2546-5.1903 2.1747-7.9331 2.8857-1.6457.4182-3.3336.7946-5.0215 1.0873-1.2237.2091-2.4896.2928-3.7555.4601-3.0382.3763-6.0343.3345-9.0725.2509-1.2237 0-2.4052-.1673-3.6289-.2509-.7174-.0419-1.3926-.1255-2.1099-.2092-1.0127-.1254-1.9833-.2509-2.996-.4182-2.0677-.4182-4.1776-.7946-6.2452-1.2964-1.4769-.3346-2.9538-.8364-4.3886-1.2128-1.0549-.2928-2.0254-.6692-2.996-1.171-.0844-.1673-.1688-.1673-.3375-.2091z" fill="#a6e8a1"/><path d="m53.0469 74.1927c-3.9244-.0418-7.8066-.3764-11.6887-.9619-3.6712-.5437-7.258-1.4219-10.8025-2.5929-.5908-.2091-1.1816-.4182-1.7723-.6273-.422-.1255-.633-.4182-.844-.7528-.0844-.1255-.0844-.3764-.0422-.5018.211-.6274.9284-.9201 1.5613-.711 3.207 1.0873 6.4562 1.9656 9.7898 2.5511 3.0382.5437 6.0764.9201 9.1568 1.0873 3.0383.1673 6.1187.1673 9.1569-.0418 6.1186-.4182 12.0684-1.5474 17.8073-3.7639 3.4601-1.3383 6.7093-3.0529 9.5366-5.4786 1.8988-1.5892 3.5023-3.3875 4.5573-5.604 1.6457-3.4293 1.5613-6.8587-.1266-10.288-1.1393-2.342-2.8694-4.2657-4.8105-5.9804-2.3631-2.0493-5.0215-3.7221-7.8909-5.0604-1.8145-.8364-3.7134-1.5892-5.5701-2.3838-.4641-.1673-.9283-.2927-1.3925-.4182-.6751-.1673-1.1393-.6273-1.6035-1.0873-.211-.2091-.1688-.4183.0422-.6692.4642-.5018 1.0549-.6691 1.6879-.5437 3.5446.8783 6.8782 2.2166 10.0852 3.9312 2.5318 1.3383 4.8949 2.9693 7.0047 4.8931 2.3209 2.1747 4.262 4.6003 5.3591 7.6115 1.5191 4.0566 1.1815 7.946-.9283 11.7517-1.7301 3.1366-4.262 5.5204-7.2158 7.5278-3.1226 2.0911-6.5406 3.6384-10.0852 4.8094-4.9371 1.6311-10.0007 2.5511-15.191 2.9275-1.8989.2091-3.84.2509-5.781.3764z" fill="#19124f"/></svg>