<svg fill="none" height="168" viewBox="0 0 170 168" width="170" xmlns="http://www.w3.org/2000/svg"><path d="m.0579414 77.0103v-4.5841c.0579416-.2321.1158826-.4062.1158826-.6383.057942-1.0445.057942-2.0309.173824-3.0174.289707-2.4371.579414-4.8742.927062-7.3113.34765-2.7853.92706-5.5705 1.6803-8.2978.985-3.4815 2.3756-6.7891 4.11384-9.9225.985-1.7408 1.97-3.4816 3.01295-5.2224 1.5644-2.7852 3.3027-5.3964 5.2147-7.8916 2.2597-2.7852 4.8671-5.2804 7.7062-7.4273 2.8392-2.147 5.7942-4.1199 8.8071-6.0928 4.0559-2.5532 8.2856-4.7001 12.7471-6.499 1.3906-.58023 2.8391-1.10247 4.2297-1.62471 1.7383-.63829 3.5345-1.21855 5.3306-1.79882 1.7962-.58026 3.5924-1.1025 5.3886-1.56671 1.97-.52224 3.9979-1.04448 5.968-1.50869 1.2747-.29013 2.4914-.58026 3.7661-.81237 1.5645-.29013 3.1289-.58026 4.7512-.81237 2.0859-.29013 4.1139-.58026 6.1998-.87039 1.912-.232109 3.8241-.464214 5.7362-.638294 2.4335-.174079 4.867-.4061847 7.3006-.4642111 1.7962-.0580264 3.6503.1740791 5.4465.2321061 2.4338.058026 4.8668.290132 7.3588.580264 2.549.348155 5.099.928425 7.532 1.682765 1.97.58027 3.824 1.27658 5.736 2.03093 1.449.58026 2.897 1.27658 4.288 1.97289 1.506.81237 2.955 1.68277 4.403 2.61119 1.739 1.10252 3.419 2.20502 5.099 3.48162 2.202 1.6827 4.404 3.3655 6.49 5.1643 1.854 1.5667 3.592 3.2495 5.272 4.9323 2.086 2.0889 4.056 4.2939 6.026 6.4989 2.782 3.0174 5.331 6.2669 7.591 9.6904 1.39 2.031 2.607 4.1779 3.65 6.441.695 1.5087 1.391 3.0754 1.97 4.5841.695 1.7407 1.391 3.4815 1.912 5.2804.869 2.6692 1.564 5.3964 2.144 8.1817.29 1.5087.637 3.0754.927 4.5841.406 2.147.695 4.2939.753 6.4409.232 5.1644-.058 10.3867-.985 15.4931-.521 3.2494-1.275 6.4989-2.317 9.6323-.985 2.8435-2.028 5.6865-3.013 8.5295-1.797 4.991-3.303 10.039-5.505 14.855-.985 2.089-1.97 4.236-3.129 6.267-1.274 2.263-2.665 4.41-4.229 6.499-2.666 3.772-5.853 7.195-9.445 10.097-3.418 2.669-6.837 5.338-10.313 7.949-1.855 1.393-3.882 2.553-5.853 3.772-2.491 1.451-5.098 2.727-7.764 3.772-1.332.522-2.665 1.102-4.056 1.566-1.97.639-3.998 1.161-6.025 1.567-1.159.232-2.318.522-3.535.754-1.448.291-2.897.407-4.3455.697-3.8821.696-7.7641 1.102-11.7041 1.218-3.9401.174-7.938.058-11.878-.232-3.0709-.232-6.1997-.58-9.2127-1.16-4.4615-.813-8.8071-2.205-12.9209-4.178-5.4465-2.727-10.6612-5.745-15.7601-9.11-2.897-1.973-5.6203-4.294-8.0538-6.848-2.0859-2.146-4.2298-4.235-6.2577-6.382-1.3327-1.393-2.6653-2.786-3.94-4.294-1.1009-1.277-2.0859-2.67-3.1868-4.004-2.2018-2.553-4.1138-5.339-5.8521-8.24-1.4485-2.437-2.78116-4.932-3.93998-7.543-.63736-1.509-1.21677-2.96-1.79619-4.468-.34764-.929-.69529-1.915-.985-2.902-.40559-1.45-.6953-2.843-1.04294-4.294-.34765-1.624-.75324-3.191-.98501-4.8159-.34765-2.3791-.69529-4.8162-.927059-7.2533-.231766-2.4371-.40559-4.9322-.521473-7.4274-.115882-2.1469-.231765-4.2939-.347648-6.3829.173824-.2321.115883-.3481.0579414-.5222z" fill="#fff"/><path d="m127.355 131.265c-10.487-3.25-20.859-6.963-30.9987-11.199-.4635-.174-.8691-.406-1.3327-.522-.1158-.058-.2317-.116-.4635-.174-.6373-.233-1.2167-.523-1.7962-.813-.0579.116-.1738.174-.1738.29-.7532.987-1.6223 1.799-2.4915 2.495 7.1268 2.321 14.1374 4.933 21.0324 7.95 4.404 1.915 8.865 4.642 13.501 5.803 2.955.754 6.026.986 9.039 1.392-1.217-2.437-3.419-4.352-6.316-5.222z" fill="#d6dadf"/><path d="m109.161 136.255c-9.3282-4.12-18.9465-7.485-28.6807-10.329-.4055-.116-.6953-.232-.985-.464-.6953.058-1.3326.058-2.0858.058-6.1418-.174-12.3995 3.076-18.3675 0-1.3326-.754-2.4914-1.625-3.2447-2.785-.4635 5.164 2.5494 9.284 7.4745 11.199 3.3606 1.335 7.1267 1.915 10.7191 2.031 1.3327.058 2.7233-.058 4.1139-.232.7532-.116 1.5064-.174 2.2597-.29.4635.29 1.0429.58 1.5644.812 2.0859 1.044 4.2297 1.857 6.3156 2.785 3.6503 1.567 7.3585 3.076 11.0668 4.468 6.5477 2.495 25.2627 10.503 31.9837 12.65 4.23-2.843 7.996-5.396 9.85-8.646-3.476-.522-27.696-9.4-31.984-11.257z" fill="#5dd4f6"/><path d="m166.06 113.683-6.547-2.553c-3.361-1.335-6.78-2.67-10.14-4.004-2.608-1.045-5.157-2.147-7.764-3.192-3.709-1.508-7.417-2.959-11.183-4.4096-4.925-1.9149-9.85-3.8878-14.775-5.8027-4.172-1.6247-8.286-3.2495-12.457-4.8742-.348-.1741-.638-.4642-.812-.8124-1.274-2.205-2.8967-4.2939-4.8667-6.0347-2.4915-2.205-4.2877-4.5841-4.9251-7.7756-.4635-2.5531-.3476-5.1643.4636-7.7175.5214-1.7408 1.1588-3.4235 1.5064-5.2224 1.043-4.7581-2.1438-7.7755-5.6782-8.5298-3.013-.6383-5.5624.6383-7.7062 2.4371-1.4485 1.2185-2.6653 2.6112-3.7083 4.1779-1.2167 2.4951-1.6223 3.6556-1.912 5.1063-.3477 2.7853-.1159 4.6421.4635 7.3694.5215 2.6692 1.6803 5.1643 3.3606 7.3693.1738.2321.2318.5222.3477.8124l.1738.2321-.3477-.1161c-.5794-.4062-1.2167-.7543-1.912-1.0444-3.998-1.8569-8.4595-2.6112-12.921-2.205-2.0279.174-3.9979.7543-5.7941 1.6247s-3.3606 2.205-4.5194 3.6557c-1.1009 1.3346-1.8541 2.9013-2.1438 4.526-.2898 1.6248-.1739 3.3655.4055 4.9323.1159.3481.1739.7543.2897 1.0444-5.1567 1.9729-6.9529 9.1678-1.7961 13.7518-1.3327 1.045-1.5065 2.554-1.5065 4.004-.058 2.844 1.9121 5.281 4.4035 7.138-.7532.464-.6373 1.392-.6373 2.03 0 1.625.5794 3.482 1.5644 4.817 1.6224 1.915 3.94 3.365 6.4894 4.062 2.7812.812 5.6783.87 8.2856-.465.9271-.464 1.7383-.696 2.7233-.232.2897.116.6373.174.927.174 4.4036.232 8.7492.232 12.3416-2.785 3.3026 1.161 6.4894 2.205 9.6182 3.424 4.3456 1.624 8.6916 3.307 13.0366 4.932 3.94 1.509 7.822 2.959 11.762 4.352 1.333.464 2.782.928 4.114 1.45 2.781 1.045 5.505 2.031 8.228 3.018 1.332.464 10.777 4.294 12.168 4.816 8.169-5.28 20.337-27.679 21.38-33.481zm-106.786-32.0888c2.955-1.9729 6.2576-2.3211 9.792-2.089 1.1009 0 2.2018.1161 3.3027.2902.8691.2321 1.7382.5802 2.5494 1.0444.8691.4643 1.7383.9285 2.6074 1.3347 1.1588.5802 1.3326.9284.7532 1.9729-1.6223 2.9593-2.4915 6.2668-2.4335 9.5163-.2897-.058-.5794-.1741-.8691-.2901-2.3756-1.2766-5.1568-1.3347-7.7062-2.031-.2897-.058-.6374-.058-.9271 0-.2897.0581-.5794.1741-.8112.3482-.2897.2321-.2897 1.0445-.1738 1.4507.1159.174.2318.3481.4056.4642.1738.174.4056.2321.5794.2901 1.9121.4642 3.94.6963 5.8521 1.2185.8112.1741 1.6223.5223 2.2597 1.0445.6953.4642 1.2747 1.0445 1.6224 1.7408 1.1588 2.0309-.2318 4.5264-2.7812 5.1064-1.043.174-2.0859.174-3.0709 0-2.1439-.464-4.3456-.987-6.2577-1.915-2.2597-1.1605-4.2297-2.7852-5.6782-4.7581-1.3327-1.7988-2.3177-3.8297-2.8971-5.9767-1.043-3.0174.8691-6.7311 3.8821-8.762zm-8.3436 16.5955c.1738-1.0444 1.6224-2.205 2.7812-2.4371.7532-.116.985.3482 1.2168.7544 1.7382 3.0173 4.4614 5.396 7.7062 6.963 3.0129 1.509 7.1847 2.901 11.2406 2.379.2317.232.5215.58.7532.813 1.4486 1.914.9271 3.423-1.6223 3.945-2.7233.523-5.5045.523-8.2277 0-4.5194-.928-8.2277-3.191-11.5883-5.976-2.2018-1.683-2.6653-3.946-2.2597-6.4413zm14.0798 28.2593c-5.3886-.349-8.3436-2.786-8.8651-7.138 5.2147 2.495 10.4874 4.41 16.2815 1.973-.1738 2.495-4.1138 5.397-7.4164 5.165zm7.0109-8.182c-2.4336 1.567-4.983 1.683-7.7062 1.16-3.0709-.58-5.968-1.798-8.4595-3.481-2.1438-1.451-3.8241-3.308-3.6503-5.977.1159-.754.2897-1.451.4635-2.205 6.3736 5.281 14.3695 6.847 20.3375 5.803 1.3326 1.799.927 3.481-.985 4.7zm27.7539-23.5588c-1.3327 2.7272-2.4336 5.5128-3.5924 8.2978-1.5644 3.598-3.1288 7.195-4.7512 10.793-.6373 1.392-1.1588 2.785-1.7962 4.236-.6373 1.625-1.7962 3.075-3.3606 4.12-1.97 1.276-3.882 2.669-6.3156 3.075-2.0279.348-4.1138.58-6.2576-.058.5794-1.102 1.6803-1.915 1.6223-3.307-.1738-1.451.1738-2.96.985-4.236.6953-1.045.4056-2.379-.0579-3.598-.1738-.464-.3477-1.045-.4636-1.509 2.5495-1.915 3.8821-3.655.5795-7.775l2.1438-1.741c.2318.348.5794.696.9271.928.4055.232 1.0429.465 1.3905.29.1739-.174.3477-.348.4636-.522s.1738-.464.1738-.696c-.0579-.754-.2897-1.451-.6374-2.089-1.2167-2.263-1.912-4.8162-1.97-7.3694-.1158-2.0309.2318-4.1198.985-6.0347.7533-2.089 1.9121-4.0038 3.4765-5.6866.6374-.7543.5794-1.2186 0-1.9149-.985-1.1605-1.7962-2.3791-2.5494-3.6556-2.4335-4.0619-2.8391-8.4719-2.0279-12.9399.1738-.8124.5794-1.5667 1.1008-2.205 1.2748-1.6248 2.4915-3.3075 4.2298-4.4681.6953-.4642 1.4485-.7543 2.2597-.9284s1.6223-.116 2.4915.058c.7532.1741 1.3906.5223 1.912 1.0445.5215.4642.8691 1.1605.985 1.8569.4636 1.7408-.1738 3.3655-.7532 5.0483-.8691 2.6692-1.7962 5.3384-1.6224 8.1817.1738 2.9593.8112 5.8606 2.6074 8.3558.985 1.3346 2.3756 2.3791 3.4765 3.5976 1.4485 1.6248 3.0709 3.1335 4.1717 4.9323.5799.9284.9849 1.9148 1.0429 3.0173-.116.8704-.348 1.9729-.869 2.9014z" fill="#1f194e"/><g fill="#a6e8a1"><path d="m117.273 33.5486c-.811-.2901-1.796-.1161-2.607.5222l-3.187 2.7273c-.753.6383-1.449 1.2185-2.202 1.8568-1.796 1.5087-3.65 3.0754-5.446 4.7002-1.043 1.0444-2.086 2.0889-3.071 3.1334-.174.1741-.406.4642-.522.7543-.116.2902-.174.6383-.174.9865 0 .3481.058.6383.174.9864.174.2902.29.5223.522.7544.579.5802 1.622.7543 2.491.5222.464-.116.927-.3481 1.275-.6383.348-.2901.695-.6383.985-.9864.174-.1741.406-.4642.637-.6383.464-.4062.811-.8124 1.275-1.2186 1.333-1.2766 2.781-2.6112 4.172-3.8877 1.043-.9865 2.202-1.9149 3.36-2.8433.985-.8124 1.97-1.6248 2.955-2.4952v-.116c.406-.4642.754-.9285.927-1.4507l.174-.3481-.058-.3482c-.231-.9284-.811-1.6828-1.68-1.9729z"/><path d="m97.1674 30.473c.2317-1.0444.4635-1.9729.7532-3.0173.1738-.7544.1159-1.4507-.2897-1.9149-.2318-.3482-.6953-.7544-1.5065-.9284-.2897-.0581-.6373-.0581-.927 0-.2897.058-.5794.174-.8691.4062-.2898.2321-.4636.4061-.6953.6963-.1739.2321-.2897.4642-.3477.7543-.5794 1.7988-1.2168 3.6557-1.6803 5.5125-.6953 2.4952-1.3326 4.9323-1.9121 7.3694-.2317.9864-.4635 1.9148-.6373 2.9013-.2897 1.8568.4635 2.4371.5794 2.4951.3477.2902.8112.6383 1.4485.7544.2897.058.6374.058.9271 0h.1159c.2897-.0581.5215-.1741.7532-.3482.2897-.1741.4636-.4062.6953-.6383.1738-.2321.2897-.4642.3477-.7543.3476-.9865.6373-2.0309.927-3.1915.2897-1.2185.5215-2.4371.8112-3.6556.2897-1.2766.5215-2.4952.8691-3.7137.2318-.9284.4636-1.8569.6374-2.7273z"/><path d="m80.4225 39.1189c-.7533-2.1469-1.6224-4.2939-2.5494-6.4409-.1739-.2901-.2318-.6383-.4056-1.0445-.4636-1.2765-1.043-2.7272-2.5494-3.7136-.058-.0581-.1159-.1161-.1739-.1741-.2897-.2321-1.2747-.9285-2.2597-.1741-.3476.2321-.5794.4642-.7532.8124-.1738.3481-.3477.6963-.4056 1.0444v.1741.1741c.1159.7543.3476 1.5667.6953 2.205l.6373 1.5087c.5215 1.2766 1.043 2.4951 1.5645 3.7717.2317.6383.4635 1.3346.7532 1.9149.4056 1.0444.7532 2.0309 1.2168 3.0754.4635.8123.985 1.5667 1.6803 2.205l.1158.058c.3477.2321.7533.4062 1.1009.4642.3477.058.6953.058 1.043-.058.0579 0 .1738-.058.1738-.058l.1738-.0581c.7533-.4061 1.1009-1.3346 1.1009-2.0889v-.1741c0-.1741-.3476-1.6247-.3476-1.6247-.3477-.4642-.5795-1.1606-.8112-1.7989z"/></g><path d="m165.365 116.12c-23.061-9.458-55.218-22.0502-58.521-22.6884-.637-.2322-3.013-1.1606-3.187-.3482-1.39 6.0347-13.616 30.9856-13.616 30.9856 5.8521 2.322 12.979 4.759 18.947 6.616.753.406 22.655 8.878 38.299 14.796 2.665-1.566 15.123-19.032 18.078-29.361z" fill="#ff596f"/></svg>